HIERARCHY
ROOT Hips
{
	OFFSET 0.000000 0.000000 0.000000
	CHANNELS 6 Xposition Yposition Zposition Zrotation Yrotation Xrotation 
	JOINT LowerBack
	{
		OFFSET 0.000000 0.000000 0.000000
		CHANNELS 3 Zrotation Yrotation Xrotation
		JOINT Spine
		{
			OFFSET 0.028270 2.035590 -0.193380
			CHANNELS 3 Zrotation Yrotation Xrotation
			JOINT Spine1
			{
				OFFSET 0.056720 2.048850 -0.042750
				CHANNELS 3 Zrotation Yrotation Xrotation
				JOINT Neck
				{
					OFFSET 0.000000 0.000000 0.000000
					CHANNELS 3 Zrotation Yrotation Xrotation
					JOINT Neck1
					{
						OFFSET -0.054170 1.746240 0.172020
						CHANNELS 3 Zrotation Yrotation Xrotation
						JOINT Head
						{
							OFFSET 0.104070 1.761360 -0.123970
							CHANNELS 3 Zrotation Yrotation Xrotation
							End Site
							{
								OFFSET 0.000000 0.000000 0.000000
							}
						}
					}
				}
				JOINT LeftShoulder
				{
					OFFSET 0.000000 0.000000 0.000000
					CHANNELS 3 Zrotation Yrotation Xrotation
					JOINT LeftArm
					{
						OFFSET 3.362410 1.200890 -0.311210
						CHANNELS 3 Zrotation Yrotation Xrotation
						JOINT LeftForeArm
						{
							OFFSET 4.983000 -0.000000 -0.000000
							CHANNELS 3 Zrotation Yrotation Xrotation
							JOINT LeftHand
							{
								OFFSET 3.483560 -0.000000 -0.000000
								CHANNELS 3 Zrotation Yrotation Xrotation
								JOINT LeftFingerBase
								{
									OFFSET 0.000000 0.000000 0.000000
									CHANNELS 3 Zrotation Yrotation Xrotation
									JOINT LeftHandIndex1
									{
										OFFSET 0.715260 -0.000000 -0.000000
										CHANNELS 3 Zrotation Yrotation Xrotation
										End Site
										{
											OFFSET 0.000000 0.000000 0.000000
										}
									}
								}
								JOINT LThumb
								{
									OFFSET 0.000000 0.000000 0.000000
									CHANNELS 3 Zrotation Yrotation Xrotation
									End Site
									{
										OFFSET 0.000000 0.000000 0.000000
									}
								}
							}
						}
					}
				}
				JOINT RightShoulder
				{
					OFFSET 0.000000 0.000000 0.000000
					CHANNELS 3 Zrotation Yrotation Xrotation
					JOINT RightArm
					{
						OFFSET -3.136600 1.374050 -0.404650
						CHANNELS 3 Zrotation Yrotation Xrotation
						JOINT RightForeArm
						{
							OFFSET -5.241900 -0.000000 -0.000000
							CHANNELS 3 Zrotation Yrotation Xrotation
							JOINT RightHand
							{
								OFFSET -3.444170 -0.000000 -0.000000
								CHANNELS 3 Zrotation Yrotation Xrotation
								JOINT RightFingerBase
								{
									OFFSET 0.000000 0.000000 0.000000
									CHANNELS 3 Zrotation Yrotation Xrotation
									JOINT RightHandIndex1
									{
										OFFSET -0.622530 -0.000000 -0.000000
										CHANNELS 3 Zrotation Yrotation Xrotation
										End Site
										{
											OFFSET 0.000000 0.000000 0.000000
										}
									}
								}
								JOINT RThumb
								{
									OFFSET 0.000000 0.000000 0.000000
									CHANNELS 3 Zrotation Yrotation Xrotation
									End Site
									{
										OFFSET 0.000000 0.000000 0.000000
									}
								}
							}
						}
					}
				}
			}
		}
	}
}
}
MOTION
Frames: 14
Frame Time: 0.008333
-4.594910 16.655149 1.150217 -102.313723 87.844661 -86.280545 -2.435187 -0.606921 -4.007723 -1.117084 -0.536524 -3.395611 -5.369747 -0.483897 1.247050 10.598642 -9.434225 -6.691321 -2.430034 -0.197070 0.263499 0.000000 0.000000 0.000000 5.127503 16.123397 0.415644 -59.959845 10.004502 -4.635961 -179.136824 -73.889926 179.963933 6.904036 -0.469469 -0.048606 -0.194737 0.364512 -0.000000 0.000000 0.000000 0.000000 0.000000 0.000000 0.000000 7.250608 -2.352348 -1.101377 58.236530 26.754618 23.030845 179.131905 76.872701 -179.978547 2.315087 7.590937 0.169957 -0.038410 -0.610780 -0.000000 0.000000 0.000000 0.000000 0.000000 0.000000 0.000000 
-4.432336 16.624293 1.155572 -100.010405 87.863089 -84.007393 -2.741853 -0.582144 -4.138962 -1.210582 -0.493404 -3.427937 -5.513992 -0.432901 1.215745 10.958019 -9.397883 -6.599867 -2.400496 -0.195845 0.285660 0.000000 0.000000 0.000000 4.595871 16.401226 0.392891 -59.790368 9.180197 -4.970191 -179.146229 -74.358525 179.961220 7.370341 -0.512591 -0.055031 -0.207997 0.365925 -0.000000 0.000000 0.000000 0.000000 0.000000 0.000000 0.000000 7.289145 -2.300336 -1.255883 59.495011 26.151185 22.594471 179.167125 77.235805 -179.978645 2.287533 7.780120 0.172038 -0.038630 -0.615900 -0.000000 0.000000 0.000000 0.000000 0.000000 0.000000 0.000000 
-4.276934 16.602352 1.158051 -94.289409 87.861845 -78.355336 -2.974279 -0.504002 -4.199981 -1.293462 -0.401632 -3.452484 -5.667125 -0.332359 1.165859 11.229724 -9.347544 -6.499277 -2.371301 -0.194630 0.309165 0.000000 0.000000 0.000000 3.958968 16.705834 0.369952 -59.643621 8.157202 -5.204215 -179.165089 -75.083372 179.958472 7.850684 -0.504822 -0.058167 -0.221435 0.365321 -0.000000 0.000000 0.000000 0.000000 0.000000 0.000000 0.000000 7.251851 -2.225448 -1.429228 60.946194 25.461202 22.115609 179.221860 77.748268 -179.979324 2.207158 7.899360 0.168622 -0.038530 -0.618057 -0.000000 0.000000 0.000000 0.000000 0.000000 0.000000 0.000000 
-4.128872 16.589693 1.157017 -84.343875 87.807771 -68.523815 -3.145749 -0.361913 -4.191415 -1.366704 -0.250043 -3.471161 -5.825116 -0.172414 1.094298 11.413348 -9.274049 -6.386613 -2.344203 -0.193627 0.335351 0.000000 0.000000 0.000000 3.239288 17.022822 0.344666 -59.557183 6.979371 -5.350789 -179.196022 -76.050211 179.955636 8.350440 -0.430272 -0.056223 -0.234587 0.362377 0.000000 0.000000 0.000000 0.000000 0.000000 0.000000 0.000000 7.150813 -2.112990 -1.615269 62.541787 24.689414 21.578755 179.295830 78.402157 -179.980846 2.039247 7.922672 0.156510 -0.037449 -0.616934 -0.000000 0.000000 0.000000 0.000000 0.000000 0.000000 0.000000 
-3.987884 16.586220 1.152012 -70.498668 87.685189 -54.839643 -3.327458 -0.160764 -4.117422 -1.438962 -0.038037 -3.485412 -5.980082 0.044911 0.999727 11.515081 -9.169792 -6.259817 -2.320667 -0.193006 0.365140 0.000000 0.000000 0.000000 2.468652 17.332780 0.316190 -59.567249 5.698608 -5.421043 -179.240537 -77.231293 179.952657 8.874727 -0.278134 -0.047304 -0.247042 0.356990 0.000000 0.000000 0.000000 0.000000 0.000000 0.000000 0.000000 7.005065 -1.956756 -1.806958 64.225989 23.848557 20.972248 179.386984 79.184137 -179.983451 1.748991 7.824909 0.133104 -0.034716 -0.612375 0.000000 0.000000 0.000000 0.000000 0.000000 0.000000 0.000000 
-3.853360 16.591417 1.142502 -55.989763 87.527080 -40.532936 -3.582365 0.053521 -3.981042 -1.515226 0.194543 -3.493486 -6.120687 0.278132 0.882741 11.542705 -9.027564 -6.117371 -2.301871 -0.192912 0.398980 0.000000 0.000000 0.000000 1.680522 17.596240 0.289653 -59.705713 4.370080 -5.421979 -179.298251 -78.589145 179.949486 9.426338 -0.043064 -0.029909 -0.258617 0.349390 0.000000 0.000000 0.000000 0.000000 0.000000 0.000000 0.000000 6.832008 -1.770806 -2.000363 65.939077 22.949259 20.286716 179.491655 80.070172 -179.987372 1.305859 7.586123 0.097189 -0.029968 -0.604232 -0.000000 0.000000 0.000000 0.000000 0.000000 0.000000 0.000000 
-3.724490 16.604440 1.128387 -44.534210 87.399304 -29.316500 -3.856824 0.230274 -3.780196 -1.585004 0.394561 -3.490223 -6.240593 0.476831 0.750265 11.509425 -8.850945 -5.962508 -2.289298 -0.193439 0.435807 0.000000 0.000000 0.000000 0.914249 17.781410 0.269485 -60.002316 3.036056 -5.352040 -179.368295 -80.084935 179.946081 10.004077 0.270602 -0.003033 -0.269113 0.340236 0.000000 0.000000 0.000000 0.000000 0.000000 0.000000 0.000000 6.654719 -1.582892 -2.191231 67.615816 22.016883 19.525989 179.603955 81.031658 -179.992758 0.685358 7.192300 0.049753 -0.022887 -0.592323 0.000000 0.000000 0.000000 0.000000 0.000000 0.000000 0.000000 
-3.600168 16.624207 1.109566 -37.711526 87.314084 -22.766215 -4.023056 0.365353 -3.522412 -1.630022 0.547947 -3.474780 -6.340735 0.630811 0.609250 11.428147 -8.644374 -5.798513 -2.284289 -0.194659 0.474978 0.000000 0.000000 0.000000 0.196307 17.881363 0.253126 -60.475346 1.747518 -5.214603 -179.448537 -81.664777 179.942470 10.601398 0.650230 0.033727 -0.278182 0.330186 0.000000 0.000000 0.000000 0.000000 0.000000 0.000000 0.000000 6.489300 -1.397270 -2.372317 69.198127 21.081406 18.707538 179.715969 82.036451 -179.999567 -0.120162 6.641644 -0.005108 -0.013180 -0.576857 -0.000000 0.000000 0.000000 0.000000 0.000000 0.000000 0.000000 
-3.479145 16.649488 1.085999 -35.155955 87.246059 -20.507662 -4.025064 0.478491 -3.228638 -1.643263 0.668600 -3.450981 -6.422866 0.754783 0.465471 11.313665 -8.413349 -5.628159 -2.286947 -0.196556 0.516214 0.000000 0.000000 0.000000 -0.454445 17.905994 0.234588 -61.126688 0.554497 -5.013100 -179.535008 -83.265740 179.938763 11.205220 1.074321 0.079077 -0.285498 0.319847 0.000000 0.000000 0.000000 0.000000 0.000000 0.000000 0.000000 6.346519 -1.207006 -2.535856 70.643827 20.171247 17.860463 179.820324 83.052252 179.992499 -1.096069 5.947407 -0.060691 -0.000752 -0.558496 0.000000 0.000000 0.000000 0.000000 0.000000 0.000000 0.000000 
-3.360237 16.679113 1.058117 -35.727973 87.185370 -21.389231 -3.889070 0.578010 -2.921348 -1.629228 0.765625 -3.422165 -6.487583 0.856708 0.326334 11.184757 -8.171577 -5.456471 -2.296644 -0.199011 0.558344 0.000000 0.000000 0.000000 -1.019977 17.871058 0.209509 -61.943638 -0.515386 -4.741340 -179.622888 -84.830482 179.935128 11.794790 1.514707 0.130619 -0.290903 0.309864 0.000000 0.000000 0.000000 0.000000 0.000000 0.000000 0.000000 6.240858 -1.019567 -2.676495 71.925811 19.316484 17.026386 179.911742 84.050141 179.983836 -2.207843 5.141846 -0.108688 0.014189 -0.538186 0.000000 0.000000 0.000000 0.000000 0.000000 0.000000 0.000000 
-3.242337 16.711943 1.026422 -38.709370 87.134783 -24.673689 -3.647889 0.660536 -2.624650 -1.592917 0.837388 -3.391803 -6.535856 0.933908 0.197263 11.056976 -7.931463 -5.286868 -2.312350 -0.201907 0.600569 0.000000 0.000000 0.000000 -1.490330 17.784117 0.176545 -62.900080 -1.440459 -4.391876 -179.707212 -86.303017 179.931761 12.343183 1.940875 0.184559 -0.294403 0.300848 0.000000 0.000000 0.000000 0.000000 0.000000 0.000000 0.000000 6.178909 -0.846488 -2.792507 73.032343 18.531090 16.244882 179.987240 85.000913 179.974944 -3.397825 4.276132 -0.141996 0.030853 -0.517050 -0.000000 0.000000 0.000000 0.000000 0.000000 0.000000 0.000000 
-3.124507 16.747053 0.991530 -43.617129 87.098838 -29.859041 -3.335561 0.718788 -2.359127 -1.539868 0.878760 -3.362125 -6.569955 0.980610 0.084977 10.944427 -7.711095 -5.124645 -2.332981 -0.205093 0.641471 0.000000 0.000000 0.000000 -1.863175 17.658844 0.135116 -63.960585 -2.222139 -3.949081 -179.784018 -87.639931 179.928854 12.818554 2.323141 0.236203 -0.296115 0.293342 -0.000000 0.000000 0.000000 0.000000 0.000000 0.000000 0.000000 6.166986 -0.707187 -2.884722 73.962386 17.829340 15.558871 -179.954041 85.880656 179.966339 -4.597538 3.416194 -0.157208 0.048230 -0.496344 0.000000 0.000000 0.000000 0.000000 0.000000 0.000000 0.000000 
-3.006059 16.783711 0.954105 -50.188728 87.075416 -36.664043 -2.979676 0.746633 -2.143620 -1.474935 0.885364 -3.335885 -6.592831 0.991995 -0.007030 10.856148 -7.524069 -4.972816 -2.357427 -0.208454 0.680306 0.000000 0.000000 0.000000 -2.143145 17.503069 0.085826 -65.083277 -2.863943 -3.400390 -179.850406 -88.803828 179.926584 13.186935 2.637266 0.280556 -0.296179 0.287738 0.000000 0.000000 0.000000 0.000000 0.000000 0.000000 0.000000 6.204057 -0.615455 -2.955712 74.725866 17.212524 15.001548 -179.911227 86.667652 179.958523 -5.730835 2.634111 -0.156020 0.065050 -0.477372 0.000000 0.000000 0.000000 0.000000 0.000000 0.000000 0.000000 
-2.886583 16.821361 0.914785 -58.165695 87.054490 -44.814847 -2.606358 0.741444 -1.992801 -1.403121 0.856293 -3.315739 -6.607595 0.966836 -0.077409 10.796819 -7.380774 -4.833216 -2.384628 -0.211902 0.716658 0.000000 0.000000 0.000000 -2.339499 17.322949 0.029617 -66.225421 -3.375505 -2.735413 -179.904723 -89.768071 179.925102 13.415393 2.865582 0.313020 -0.294703 0.284295 0.000000 0.000000 0.000000 0.000000 0.000000 0.000000 0.000000 6.284769 -0.580038 -3.008814 75.339030 16.674927 14.594496 -179.882332 87.343857 179.951930 -6.724238 1.999338 -0.144730 0.080039 -0.461370 0.000000 0.000000 0.000000 0.000000 0.000000 0.000000 0.000000 
